<?xml version="1.0" standalone="no"?>
<!DOCTYPE svg PUBLIC "-//W3C//DTD SVG 20010904//EN"
 "http://www.w3.org/TR/2001/REC-SVG-20010904/DTD/svg10.dtd">
<svg version="1.0" xmlns="http://www.w3.org/2000/svg"
 width="800.000000pt" height="800.000000pt" viewBox="0 0 800.000000 800.000000"
 preserveAspectRatio="xMidYMid meet">
<metadata>
Created by potrace 1.14, written by Peter Selinger 2001-2017
</metadata>
<g transform="translate(0.000000,800.000000) scale(0.100000,-0.100000)"
fill="#000000" stroke="none">
<path d="M1293 5428 c-18 -5 -33 -14 -34 -21 0 -7 -1 -50 -2 -97 l-2 -85 -33
-1 c-39 0 -45 7 -46 55 -1 31 -4 36 -26 36 -45 0 -58 -11 -53 -50 2 -19 0 -35
-4 -36 -5 0 -17 -2 -28 -4 -41 -8 -55 4 -51 45 4 35 2 38 -23 42 -60 8 -61 7
-61 -123 0 -65 1 -119 3 -119 9 0 103 34 112 40 6 4 25 12 43 18 32 11 32 11
32 -22 0 -32 -2 -33 -87 -66 l-88 -33 30 -13 c17 -8 55 -24 86 -38 51 -21 56
-27 57 -55 1 -37 -1 -37 -106 10 -35 16 -68 29 -73 29 -5 0 -9 -54 -9 -121 l0
-120 43 3 c39 3 42 5 43 33 1 17 2 35 3 40 1 10 21 11 68 6 8 -1 11 -14 9 -37
-2 -28 2 -38 17 -43 22 -8 67 -3 65 8 0 3 0 22 1 41 1 37 4 39 67 31 13 -1 17
-408 4 -416 -4 -3 -22 7 -39 23 -17 15 -45 38 -62 52 -18 14 -51 41 -74 60
-23 19 -59 49 -80 65 -22 17 -49 39 -61 50 -13 11 -36 30 -51 42 -15 12 -38
30 -50 40 -11 10 -38 32 -60 50 -21 17 -49 40 -63 52 -14 11 -29 24 -35 28
-37 29 -122 98 -130 107 -5 6 -27 24 -48 39 l-38 29 -38 -40 c-55 -57 -57 -77
-13 -110 21 -15 48 -37 62 -49 14 -13 28 -23 32 -23 15 0 8 -32 -11 -56 -12
-15 -22 -20 -26 -14 -3 5 -20 17 -36 25 -28 15 -30 15 -54 -12 l-25 -28 35
-30 35 -30 -28 -33 c-26 -30 -30 -32 -42 -17 -7 9 -22 21 -33 27 -16 8 -24 5
-43 -17 -13 -15 -21 -31 -18 -36 9 -15 178 -149 188 -149 5 0 7 2 4 6 -3 3 5
37 18 75 13 39 24 77 24 85 0 23 36 16 49 -9 10 -19 10 -30 -2 -60 -9 -19 -13
-38 -9 -41 3 -3 1 -6 -5 -6 -5 0 -10 -6 -10 -12 0 -7 -3 -23 -7 -35 -10 -31 1
-29 71 10 81 46 86 47 111 27 26 -21 25 -22 -70 -74 -37 -21 -70 -41 -72 -45
-3 -4 35 -40 85 -80 95 -77 103 -79 131 -28 9 17 5 25 -20 47 l-30 26 24 32
25 32 27 -25 c34 -32 41 -31 70 2 l23 28 -30 27 c-37 33 -37 36 -8 70 l23 26
111 -91 c150 -124 191 -158 219 -182 l23 -20 -163 -129 c-90 -72 -167 -131
-173 -133 -5 -2 -16 8 -23 23 -8 14 -22 30 -32 35 -25 13 -68 -8 -87 -42 -14
-25 -13 -29 12 -59 50 -59 21 -77 -48 -30 -185 127 -404 112 -554 -39 -127
-128 -160 -334 -79 -501 16 -35 16 -35 -8 -50 -13 -8 -27 -22 -30 -32 -15 -47
78 -126 106 -90 3 4 13 13 23 21 16 12 21 11 45 -12 24 -23 102 -68 127 -74 5
-1 28 -7 50 -13 50 -13 156 -10 216 5 167 44 298 217 300 399 2 76 -25 189
-51 221 -6 7 -3 17 10 27 19 17 24 13 76 -60 8 -11 57 16 78 42 l24 32 -33 38
-33 39 111 91 c62 50 117 95 124 101 7 5 19 16 27 23 8 6 17 12 20 12 3 0 4
-82 3 -182 l-2 -183 -45 -1 c-25 -1 -48 -2 -51 -3 -11 -2 -17 -50 -10 -84 5
-25 12 -32 31 -33 14 -1 38 -2 53 -3 23 -1 28 -5 25 -22 -2 -16 -17 -26 -58
-38 -99 -31 -174 -83 -227 -155 -12 -17 -26 -35 -30 -41 -16 -20 -43 -91 -49
-130 -13 -76 -10 -131 10 -210 14 -56 76 -148 136 -203 30 -27 155 -89 190
-94 20 -2 25 -9 28 -43 2 -22 5 -41 7 -43 9 -9 94 -12 116 -4 21 9 25 16 24
45 -2 32 1 36 38 47 156 46 269 150 318 290 53 155 6 330 -120 443 -47 42
-172 107 -207 107 -21 0 -35 23 -27 46 2 6 22 9 48 7 41 -4 46 -2 55 22 24 62
3 96 -58 97 -23 0 -43 3 -43 7 -4 20 -3 361 1 361 3 0 68 -53 144 -117 113
-95 136 -118 124 -127 -8 -6 -22 -23 -32 -38 -16 -24 -16 -29 -2 -51 18 -27
59 -49 78 -42 7 3 23 21 36 41 19 30 26 33 38 23 10 -8 13 -21 9 -33 -3 -12
-7 -25 -8 -31 -2 -5 -6 -16 -10 -22 -24 -38 -35 -162 -22 -237 10 -59 44 -146
57 -146 5 0 8 -6 8 -12 0 -16 49 -69 98 -105 20 -15 39 -30 42 -33 22 -22 136
-49 210 -49 97 -1 209 38 275 94 l27 24 36 -24 35 -24 26 20 c29 23 50 56 51
79 0 8 -13 26 -30 38 -27 22 -28 26 -15 45 42 66 60 232 35 315 -17 56 -52
132 -62 132 -4 0 -8 6 -8 13 0 15 -59 73 -108 107 -19 12 -64 33 -100 45 -120
40 -257 19 -375 -59 -30 -20 -59 -36 -66 -36 -25 0 -23 32 5 61 27 29 28 30
12 57 -9 15 -29 33 -44 41 -26 13 -29 12 -61 -23 -35 -37 -42 -38 -73 -6 -3 3
-25 21 -50 40 -25 19 -47 37 -50 40 -3 3 -47 39 -97 80 -51 41 -93 76 -92 79
0 4 33 32 74 65 40 32 82 66 92 75 10 9 55 46 100 84 l81 67 26 -32 25 -33
-29 -23 c-35 -27 -36 -39 -11 -69 24 -28 29 -28 65 1 l29 24 25 -30 25 -29
-33 -28 -33 -27 24 -35 24 -35 96 76 c110 87 111 76 -14 140 l-68 35 26 22
c22 20 29 21 53 10 15 -6 29 -14 32 -17 11 -11 93 -50 97 -46 3 3 -6 40 -20
83 -24 71 -24 79 -10 95 9 10 21 18 28 18 6 0 24 -40 39 -90 15 -49 31 -90 35
-90 4 0 15 8 24 18 9 10 48 43 87 73 38 30 70 59 70 65 0 6 -11 21 -24 33
l-25 23 -33 -25 -32 -26 -26 31 -26 31 35 32 35 32 -26 28 -26 28 -30 -22
c-36 -25 -37 -25 -62 -4 -31 27 -24 45 35 87 87 63 91 69 67 108 -12 18 -32
44 -46 57 l-26 24 -27 -24 c-41 -37 -47 -42 -89 -74 -21 -16 -45 -37 -54 -45
-8 -8 -31 -26 -50 -40 -19 -14 -42 -32 -50 -40 -9 -8 -36 -31 -60 -50 -24 -19
-100 -81 -169 -138 -69 -57 -142 -116 -161 -132 -19 -16 -55 -44 -78 -64 -24
-20 -47 -36 -50 -36 -4 0 -7 239 -7 530 l0 531 -25 5 c-50 10 -55 10 -87 2z
m-808 -1625 c62 -33 83 -111 45 -166 -27 -39 -61 -55 -109 -51 -45 3 -91 49
-94 92 -2 34 -11 39 -32 20 -7 -7 -27 -23 -44 -36 -19 -15 -28 -29 -24 -40 29
-91 88 -147 165 -156 22 -3 32 -9 29 -17 -18 -64 35 -169 102 -204 25 -13 30
-11 76 23 l49 36 -41 21 c-72 35 -90 114 -39 173 75 89 214 22 198 -96 -23
-170 -224 -272 -406 -205 -25 9 -56 23 -69 31 l-23 16 33 27 34 28 -19 33
c-10 18 -30 43 -43 55 -22 19 -27 20 -50 8 -14 -8 -30 -20 -34 -27 -16 -25
-42 63 -42 138 1 139 80 253 208 300 36 13 103 11 130 -3z m1858 -12 c91 -42
169 -168 170 -277 0 -58 -21 -144 -35 -144 -6 0 -23 9 -38 20 l-28 20 -30 -25
c-16 -13 -35 -39 -42 -56 -13 -30 -12 -33 19 -58 l32 -27 -43 -24 c-24 -14
-46 -25 -50 -26 -5 -1 -9 -2 -10 -4 -2 -1 -12 -3 -23 -6 -126 -26 -229 4 -308
89 -45 49 -67 96 -67 146 0 40 29 95 57 109 57 28 143 -1 164 -56 13 -32 6
-96 -13 -119 -7 -9 -30 -24 -50 -33 l-37 -16 49 -37 c50 -37 50 -37 77 -20 36
23 63 50 63 63 0 6 4 10 9 10 8 0 24 41 26 67 0 6 3 15 7 19 4 3 3 14 -2 23
-8 15 1 47 11 40 2 -1 20 1 41 5 54 10 109 66 137 139 9 23 5 29 -36 61 -26
20 -49 36 -52 36 -3 0 -6 -14 -7 -30 -2 -56 -70 -105 -128 -94 -43 8 -92 55
-98 93 -16 111 108 170 235 112z m-1109 -524 c52 -42 45 -146 -12 -183 -33
-22 -91 -21 -125 1 l-27 17 0 -65 c0 -62 1 -65 28 -73 79 -23 163 -6 214 43
25 24 27 24 37 5 14 -27 78 -55 131 -57 48 -2 100 9 109 24 11 18 5 115 -7
119 -7 2 -12 -1 -12 -7 0 -20 -70 -31 -105 -17 -83 35 -100 148 -29 199 49 37
139 17 183 -39 44 -56 55 -163 25 -256 -9 -29 -58 -99 -91 -130 -15 -15 -52
-39 -82 -53 -58 -29 -75 -24 -66 22 2 12 -2 26 -8 31 -18 15 -68 20 -104 10
-33 -8 -38 -21 -34 -70 2 -15 -3 -15 -35 -6 -160 44 -257 223 -209 386 16 54
65 109 104 118 14 3 30 7 36 8 20 5 53 -7 79 -27z"/>
<path d="M7233 5005 c-29 -7 -53 -11 -53 -9 0 2 -33 -8 -72 -23 -129 -46 -235
-134 -286 -236 -13 -26 -23 -49 -23 -52 0 -2 -6 -19 -13 -37 -37 -88 -36 -258
0 -368 36 -107 143 -231 245 -284 30 -16 62 -35 72 -44 9 -8 17 -12 17 -8 0 3
15 -1 33 -11 17 -9 37 -18 42 -19 32 -7 214 -78 271 -106 79 -38 165 -118 188
-173 33 -79 24 -219 -20 -310 -62 -127 -168 -185 -330 -180 -135 4 -254 58
-321 147 -34 45 -80 144 -88 193 -4 22 -9 54 -12 70 -4 17 -7 47 -7 67 -1 36
-3 38 -33 39 -18 1 -45 1 -60 2 l-28 1 2 -160 c2 -141 8 -325 12 -347 3 -19
169 -79 257 -93 21 -3 41 -7 45 -9 26 -16 325 -24 399 -10 69 12 146 37 210
68 119 57 241 203 265 317 4 19 10 39 13 45 16 27 17 219 2 276 -7 24 -13 49
-14 55 -1 6 -16 41 -34 77 -74 151 -204 246 -457 336 -49 18 -99 36 -110 40
-11 4 -60 27 -108 52 -153 77 -210 151 -210 274 -1 101 24 168 87 231 60 60
126 86 226 90 148 7 260 -49 326 -161 31 -54 62 -148 70 -216 3 -30 9 -57 13
-61 7 -8 34 -11 83 -9 l36 1 -3 128 c-2 70 -5 165 -6 212 -1 47 -4 90 -6 97
-4 11 -141 69 -183 78 -8 2 -49 11 -90 20 -92 21 -276 26 -347 10z"/>
<path d="M3138 4959 c-7 -74 -5 -76 105 -75 53 1 98 -1 98 -4 1 -3 2 -297 4
-655 1 -475 5 -668 14 -715 29 -150 88 -265 172 -338 71 -62 198 -112 315
-125 17 -2 34 -5 39 -8 15 -7 253 -3 314 5 132 18 239 66 312 139 55 55 81 98
112 183 46 129 50 186 52 869 1 352 3 643 4 646 0 3 41 4 90 3 l89 -2 4 38 c7
80 26 75 -279 75 l-273 0 -1 -32 c-1 -18 -1 -40 -1 -48 0 -8 0 -19 1 -23 0 -5
44 -8 97 -8 76 1 97 -2 103 -14 9 -18 6 -1222 -3 -1304 -8 -70 -31 -157 -58
-209 -26 -51 -100 -125 -145 -144 -103 -43 -262 -52 -359 -19 -106 35 -193
146 -219 276 -5 27 -15 94 -21 140 -8 65 -8 1259 0 1267 4 4 53 7 109 8 l101
0 6 30 c3 17 3 41 0 55 l-6 25 -386 0 -386 0 -4 -36z"/>
<path d="M5005 4975 c-2 -11 -3 -36 -2 -55 l2 -35 108 0 107 0 0 -857 0 -858
-47 -1 c-27 0 -78 0 -115 -1 l-68 0 0 -56 0 -57 452 1 c548 1 582 4 731 66
166 67 274 192 307 353 61 297 -101 539 -405 601 -22 5 -47 9 -55 10 -8 1 -19
2 -25 3 -5 1 28 14 73 30 150 52 261 144 316 261 27 58 31 75 30 155 0 101 -4
124 -33 191 -58 130 -193 224 -375 260 -17 4 -248 7 -514 8 -478 2 -483 1
-487 -19z m825 -99 c148 -26 246 -187 235 -387 -3 -66 -41 -199 -56 -199 -5 0
-9 -5 -9 -11 0 -19 -82 -94 -125 -114 -32 -16 -68 -20 -185 -23 l-145 -4 1
364 c1 199 2 368 3 373 1 12 215 13 281 1z m103 -879 c136 -62 200 -190 200
-401 0 -165 -42 -270 -139 -347 -85 -68 -173 -85 -409 -80 l-40 1 1 428 c1
235 2 429 3 431 0 2 74 1 164 -1 148 -4 167 -7 220 -31z"/>
</g>
</svg>
